<svg width="47" height="47" viewBox="0 0 47 47" fill="none" xmlns="http://www.w3.org/2000/svg">
<g opacity="0.5">
<path d="M35.1236 2.79436C41.6737 3.38001 46.5087 9.16536 45.9231 15.7155C45.5643 19.7279 43.2529 23.0936 40.0114 24.9671C42.8694 27.3859 44.547 31.1089 44.1882 35.1215C43.6026 41.6717 37.8182 46.5067 31.268 45.9212C27.2549 45.5624 23.888 43.2506 22.0146 40.0083C19.5958 42.8669 15.8731 44.5459 11.86 44.1871C5.31003 43.6014 0.475016 37.8169 1.06034 31.2669C1.41907 27.2543 3.73057 23.8879 6.97217 22.0144C4.11425 19.5955 2.43659 15.8725 2.79532 11.8599C3.38105 5.30992 9.16547 0.47479 15.7155 1.06027C19.7281 1.419 23.0945 3.73046 24.968 6.9721C27.3869 4.11367 31.1105 2.4356 35.1236 2.79436ZM23.7495 20.6023C22.8601 21.6534 21.7954 22.5441 20.6033 23.233C21.6539 24.1221 22.5444 25.1865 23.2332 26.3781C24.1223 25.3274 25.1875 24.4372 26.3792 23.7484C25.3286 22.859 24.4382 21.7942 23.7495 20.6023Z" fill="#FFA264"/>
</g>
</svg>
