<svg width="47" height="47" viewBox="0 0 47 47" fill="none" xmlns="http://www.w3.org/2000/svg">
<g opacity="0.5">
<path d="M35.1245 2.79445C41.6747 3.38007 46.5097 9.16543 45.9241 15.7156C45.5652 19.7283 43.2533 23.0937 40.0114 24.9671C42.8694 27.3859 44.547 31.1088 44.1882 35.1215C43.6026 41.6717 37.8182 46.5068 31.268 45.9212C27.2549 45.5624 23.888 43.2507 22.0146 40.0083C19.5958 42.8669 15.8731 44.5459 11.86 44.1871C5.31007 43.6014 0.475021 37.8168 1.06034 31.2669C1.41906 27.2543 3.73059 23.8879 6.97217 22.0144C4.11445 19.5955 2.43661 15.8724 2.79532 11.8599C3.38103 5.30984 9.16636 0.47478 15.7165 1.06036C19.7291 1.41917 23.0955 3.73049 24.969 6.97218C27.3878 4.11371 31.1115 2.43568 35.1245 2.79445ZM23.7505 20.6024C22.861 21.6536 21.7957 22.544 20.6033 23.233C21.6539 24.1221 22.5444 25.1865 23.2332 26.3781C24.1226 25.327 25.1881 24.4364 26.3803 23.7475C25.3298 22.8582 24.4391 21.7941 23.7505 20.6024Z" fill="#FFA264"/>
</g>
</svg>
