<svg width="85" height="94" viewBox="0 0 85 94" fill="none" xmlns="http://www.w3.org/2000/svg">
<g opacity="0.3">
<path d="M34.8187 3.66504C39.1199 -1.00155 46.4891 -1.00162 50.7903 3.66504L82.0394 37.5723C84.8377 40.6086 85.6723 44.9692 84.1927 48.8242L75.012 72.7441C73.4007 76.9419 69.3688 79.7129 64.8724 79.7129H53.4915V90.2773C53.492 90.3017 53.4935 90.3261 53.4935 90.3506C53.4935 90.3747 53.492 90.3988 53.4915 90.4229V91.0576H53.4222C53.0944 92.6769 51.6635 93.8963 49.9476 93.8965H45.6927C43.7345 93.8965 42.1468 92.3088 42.1468 90.3506C42.1468 88.3923 43.7344 86.8047 45.6927 86.8047H46.3997V79.7129H39.3079V90.3135C39.308 90.3258 39.3089 90.3382 39.3089 90.3506C39.3089 90.3626 39.308 90.3747 39.3079 90.3867V91.0576H39.2376C38.9098 92.6769 37.4789 93.8963 35.763 93.8965H31.5081C29.5499 93.8964 27.9623 92.3088 27.9622 90.3506C27.9622 88.3923 29.5499 86.8048 31.5081 86.8047H32.2161V79.7129H20.7366C16.2403 79.7129 12.2084 76.9418 10.597 72.7441L1.41632 48.8242C-0.06329 44.9693 0.770478 40.6086 3.56866 37.5723L34.8187 3.66504Z" fill="#FFA76B"/>
</g>
</svg>
