<svg width="47" height="47" viewBox="0 0 47 47" fill="none" xmlns="http://www.w3.org/2000/svg">
<g opacity="0.5">
<path d="M35.1235 2.79436C41.6737 3.37995 46.5087 9.16532 45.9231 15.7155C45.5643 19.7277 43.2535 23.0936 40.0123 24.9672C42.87 27.386 44.5469 31.1091 44.1882 35.1215C43.6025 41.6717 37.8182 46.5068 31.268 45.9212C27.2549 45.5624 23.8879 43.2507 22.0146 40.0083C19.5958 42.8669 15.8731 44.5459 11.86 44.1871C5.31002 43.6014 0.474987 37.8169 1.06031 31.2669C1.41903 27.2543 3.73055 23.8879 6.97214 22.0144C4.11432 19.5955 2.43657 15.8725 2.79529 11.8599C3.381 5.31 9.16554 0.474948 15.7155 1.06027C19.728 1.41899 23.0945 3.73052 24.968 6.9721C27.3868 4.11363 31.1105 2.43565 35.1235 2.79436ZM23.7495 20.6023C22.8601 21.6534 21.7954 22.5441 20.6033 23.233C21.6539 24.1221 22.5444 25.1865 23.2331 26.3781C24.1223 25.3274 25.1875 24.4372 26.3792 23.7484C25.3286 22.859 24.4381 21.7942 23.7495 20.6023Z" fill="#FFA264"/>
</g>
</svg>
